# xmcd
#
# Track frame offsets:
#	150
#	3538
#	23669
#	43950
#	60246
#	81587
#	95570
#	115197
#	134836
#	152704
#	169277
#
# Disc length: 3018 seconds
#
# Revision: 1
# Processed by: cddbd v1.5.2PL0 Copyright (c) Steve Scherf et al.
# Submitted via: audiograbber 1.83.01
#
DISCID=930bc80b
DTITLE=Celan - Halo
DYEAR=2009
DGENRE=noise rock
TTITLE0=Safety Recall Notice
TTITLE1=A Thousand Charms
TTITLE2=All This And Everything
TTITLE3=One Minute
TTITLE4=Sinking
TTITLE5=Weigh Tag
TTITLE6=Washing Machine
TTITLE7=Train Of Thought
TTITLE8=It's Low
TTITLE9=Wait And See
TTITLE10=Lunchbox
EXTD=
EXTT0=
EXTT1=
EXTT2=
EXTT3=
EXTT4=
EXTT5=
EXTT6=
EXTT7=
EXTT8=
EXTT9=
EXTT10=
PLAYORDER=
